<svg xmlns="http://www.w3.org/2000/svg" viewBox="0 0 32 32"><g fill="#F92707"><path d="M13.073 16.307h-.006v.006zM12.72 16.66h-.007v.007z"/><path d="M31.71 23.57c-.12-.14-.23-.3-.36-.43l-2.29-2.35c-.4-.42-.4-.42 0-.76.5-.37.96-.82 1.33-1.33a7.09 7.09 0 0 0 1.22-6.52 6.93 6.93 0 0 0-6.53-4.97H18.8c-.43-.05-.83.18-1.03.56-.17.38-.12.82.15 1.14a9.33 9.33 0 0 1 1.61 4.14A8.91 8.91 0 0 1 16.77 21c-2.2 2.2-5.43 3-8.4 2.07A9.1 9.1 0 0 1 2 13.58c0-.24.11-.3.33-.29h1.29c.3 0 .37.08.34.38a7 7 0 0 0 .73 3.92 6.83 6.83 0 0 0 12.88-2.14 7 7 0 0 0-6.78-8.22H3.2a1 1 0 0 0-1.04 1.1c.05.58.46.91 1.14.92h7.49c2.1.03 3.96 1.4 4.61 3.4a5.01 5.01 0 0 1-1.27 5.33v.03a4.67 4.67 0 0 1-5.07.99H9a1.7 1.7 0 0 1-.67-.33l-.09-.05a4.52 4.52 0 0 1-1.9-2.29s-.04-.04 0-.07a4.83 4.83 0 0 1-.35-2.77c0-.2.17-.18.3-.18h1.47c.21 0 .26.06.22.28a3.2 3.2 0 0 0 .78 2.92l.09.1.1.08c1.01.82 2.43.9 3.53.2.34-.23.62-.53.84-.88.46-.8.58-1.77.33-2.66l-.2-.35a2.83 2.83 0 0 0-2.6-1.7H1.27a.93.93 0 0 0-1.05.84c-.39 1.93-.26 3.93.37 5.8a10.7 10.7 0 0 0 12.44 7.25c4.08-.92 6.72-3.52 8.06-7.49a.43.43 0 0 1 .49-.35h3.43c.39 0 .77-.07 1.13-.22a3.05 3.05 0 0 0 1.82-3.34 2.95 2.95 0 0 0-3.01-2.49H21.6c-.32 0-.5-.05-.58-.42-.1-.42-.26-.82-.46-1.2-.16-.35-.06-.42.29-.41h3.92a4.96 4.96 0 0 1 5.1 4.32 5.06 5.06 0 0 1-3.7 5.64c-.97.16-1.95.2-2.93.12a1.11 1.11 0 0 0-1.18 1.18v3.78c0 .71.39 1.13.99 1.12.6 0 .96-.42.97-1.13v-2.5c0-.3.06-.42.39-.4.46.04.92.01 1.37-.07.6-.15 1.21.09 1.54.6.96 1.03 1.96 2 2.94 3.02a.94.94 0 0 0 1.39 0 .97.97 0 0 0 .05-1.38zM10.83 13.3c.54.04.96.49.96 1.03-.01.56-.47 1-1.03 1a1 1 0 0 1 .07-2v-.03zm11.04 0h3.16a1 1 0 0 1 1 .93.94.94 0 0 1-.86 1.06c-1.12.05-2.25 0-3.38 0-.18 0-.22-.1-.21-.26.06-.5.06-1 0-1.5-.03-.22.1-.24.29-.24v.01z"/></g></svg>